#!OML:ASF H:\Terrain\Patient Classification 1\Animal1\Tuesday\Animal1.ASF
:FULLY-SPECIFIED
:DEGREES
3308
root 6.61851 16.8876 2.7327 -171.958 -128.468 -176.099
lowerback -7.94349 -0.464957 0.236748
upperback -7.2098 -0.780027 0.337572
thorax -3.01417 -0.459784 0.179534
lowerneck -5.85082 -2.42934 -7.3029
upperneck 15.2245 -3.35368 5.06807
head 5.7602 -1.74302 2.57179
rclavicle 4.34344e-014 3.02153e-014
rhumerus -40.5941 10.8348 -90.6384
rradius 24.7117
rwrist -20.14
rhand -4.41122 14.8338
rfingers 7.12502
rthumb 21.359 -14.009
lclavicle 4.34344e-014 3.02153e-014
lhumerus -42.4994 -4.93505 85.5298
lradius 71.7067
lwrist -15.5782
lhand 35.133 50.5247
lfingers 7.12502
lthumb 58.2529 66.0169
rfemur -15.1798 28.302 21.2365
rtibia 17.8128
rfoot -51.3344 -40.5336
rtoes 55.0617
lfemur -13.1751 -28.9208 -22.0244
ltibia 10.8389
lfoot -37.6947 41.7267
ltoes 50.3402
3309
root 6.61688 16.882 2.73953 -171.73 -128.387 -176.56
lowerback -7.93947 -0.311901 0.68865
upperback -7.14583 -0.598457 0.28418
thorax -2.95452 -0.387552 -0.119887
lowerneck -5.79015 -2.48238 -7.21389
upperneck 15.2951 -3.44331 5.05697
head 5.77579 -1.78444 2.54794
rclavicle -6.4605e-016 4.37326e-015
rhumerus -40.7969 10.7502 -90.6835
rradius 24.9377
rwrist -20.0685
rhand -4.39626 14.953
rfingers 7.12502
rthumb 21.3734 -13.8882
lclavicle -6.4605e-016 4.37326e-015
lhumerus -42.2174 -4.96437 84.8838
lradius 74.4724
lwrist -13.445
lhand 35.7288 51.1611
lfingers 7.12502
lthumb 58.7702 66.1707
rfemur -14.919 28.2174 21.6111
rtibia 17.6283
rfoot -51.0942 -40.4043
rtoes 55.0455
lfemur -13.2235 -29.5589 -21.6769
ltibia 11.1328
lfoot -39.2937 41.4002
ltoes 51.1555
3310
root 6.61528 16.8858 2.73763 -171.54 -128.43 -176.75
lowerback -8.03087 -0.243332 0.765264
upperback -7.15359 -0.512722 0.281708
thorax -2.91239 -0.347923 -0.161619
lowerneck -5.61102 -2.51857 -7.23418
upperneck 15.2736 -3.51462 5.126
head 5.74404 -1.81863 2.56991
rclavicle 1.65488e-014 2.0276e-014
rhumerus -40.7517 10.9443 -90.8156
rradius 24.9343
rwrist -20.2676
rhand -4.38863 15.265
rfingers 7.12502
rthumb 21.3807 -13.5754
lclavicle 1.65488e-014 2.0276e-014
lhumerus -41.7949 -5.48726 84.3883
lradius 77.0023
lwrist -10.9076
lhand 34.1064 50.509
lfingers 7.12502
lthumb 57.356 66.7945
rfemur -14.877 28.0518 21.7619
rtibia 17.4651
rfoot -51.2709 -40.0771
rtoes 55.352
lfemur -13.3245 -29.3559 -21.5668
ltibia 11.3641
lfoot -38.8073 41.4445
ltoes 50.7238
3311
root 6.61337 16.8862 2.73599 -171.444 -128.435 -176.88
lowerback -8.0728 -0.17314 0.790119
upperback -7.13284 -0.419929 0.326718
thorax -2.86651 -0.300829 -0.124589
lowerneck -5.50968 -2.56341 -7.51056
upperneck 15.2731 -3.57722 5.28596
head 5.73821 -1.85549 2.6631
rclavicle 1.46107e-014 9.14409e-015
rhumerus -40.6993 11.3581 -90.9129
rradius 25.0278
rwrist -20.8239
rhand -4.25519 15.1674
rfingers 7.12502
rthumb 21.5089 -13.6584
lclavicle 1.46107e-014 9.14409e-015
lhumerus -41.123 -5.92863 83.9046
lradius 79.1102
lwrist -8.68731
lhand 32.0135 49.3086
lfingers 7.12502
lthumb 55.5074 67.0738
rfemur -14.8318 28.0819 21.8624
rtibia 17.3963
rfoot -51.1735 -40.3205
rtoes 55.372
lfemur -13.3262 -29.2664 -21.4967
ltibia 11.4588
lfoot -39.4806 40.9262
ltoes 51.47
3312
root 6.61315 16.88 2.73306 -171.467 -128.528 -176.887
lowerback -8.10073 -0.138589 0.849205
upperback -7.09478 -0.3768 0.286417
thorax -2.8115 -0.281645 -0.197417
lowerneck -5.55986 -2.6217 -7.65271
upperneck 15.4594 -3.65296 5.3318
head 5.81385 -1.89862 2.6959
rclavicle 6.65432e-014 3.06128e-014
rhumerus -40.852 11.5569 -90.9637
rradius 25.2927
rwrist -21.1162
rhand -4.07796 14.9323
rfingers 7.12502
rthumb 21.6791 -13.8739
lclavicle 6.65432e-014 3.06128e-014
lhumerus -40.3358 -6.45002 83.2592
lradius 81.2931
lwrist -6.45249
lhand 30.3155 48.7583
lfingers 7.12502
lthumb 53.9904 67.6029
rfemur -14.8018 28.3496 21.8623
rtibia 17.4179
rfoot -51.6257 -40.2999
rtoes 55.5196
lfemur -13.3752 -29.5472 -21.4141
ltibia 11.4334
lfoot -40.5279 40.5045
ltoes 52.419
3313
root 6.61135 16.8789 2.73287 -171.618 -128.661 -176.787
lowerback -8.1311 -0.137533 0.858206
upperback -7.04928 -0.376039 0.195587
thorax -2.74771 -0.282681 -0.296691
lowerneck -5.66222 -2.68638 -7.56584
upperneck 15.7646 -3.74516 5.24577
head 5.93053 -1.94656 2.64727
rclavicle 8.60241e-014 9.54166e-015
rhumerus -40.9821 11.378 -90.8661
rradius 25.4444
rwrist -20.7182
rhand -3.74328 15.1725
rfingers 7.12502
rthumb 22.0005 -13.5963
lclavicle 8.60241e-014 9.54166e-015
lhumerus -39.8573 -7.07857 82.5436
lradius 84.0728
lwrist -4.16679
lhand 28.4452 48.7254
lfingers 7.12502
lthumb 52.3038 68.6488
rfemur -14.7406 28.5863 21.8301
rtibia 17.5465
rfoot -52.7806 -39.4015
rtoes 56.1028
lfemur -13.1878 -29.63 -21.54
ltibia 11.2221
lfoot -39.1392 41.5873
ltoes 51.0842
